# xmcd
#
# Track frame offsets:
#	150
#	17797
#	33303
#	50094
#	62866
#	79773
#	97465
#	114927
#	140997
#	156228
#	175463
#	190650
#
# Disc length: 2766 seconds
#
# Revision: 2
# Processed by: cddbd v1.5.2PL0 Copyright (c) Steve Scherf et al.
# Submitted via: audiograbber 1.83.01
#
DISCID=ae0acc0c
DTITLE=Lucy DeSoto - Lucy DeSoto And The Handsome Devils
DYEAR=2004
DGENRE=Blues
TTITLE0=Good Morning Blues
TTITLE1=Your Time Now
TTITLE2=Walking Blues
TTITLE3=When I Get Drunk
TTITLE4=Thirty Days
TTITLE5=Wee Wee Hours
TTITLE6=Don't Have To Go
TTITLE7=The Dying Gambler
TTITLE8=Shake Your Money Maker
TTITLE9=Can't Get That Stuff No More
TTITLE10=Everday I Have The Blues
TTITLE11=Wee Wee Hours (faster)
EXTD=
EXTT0=
EXTT1=
EXTT2=
EXTT3=
EXTT4=
EXTT5=
EXTT6=
EXTT7=
EXTT8=
EXTT9=
EXTT10=
EXTT11=
PLAYORDER=
